mtllib white_latex_pillar1.mtl

o cuboid
v 0.90625 0 0.90625
v 0.90625 0 0.09375
v 0.09375 0 0.90625
v 0.09475 0 0.09475
v 0.84375 1 0.84375
v 0.84375 1 0.15625
v 0.15625 1 0.84375
v 0.15625 1 0.15625
vt 0 0
vt 0.5 0
vt 0.5 1
vt 0 1
vt 0.4375 0.5
vt 0 0.5
vt 0 0.4375
vt 0.4375 0.4375
vt 0.46875 0.75
vt 0.03125 0.75
vt 0.03125 0.6875
vt 0.46875 0.6875
vt 0.4375 1
vt 0 1
vt 0 0.9375
vt 0.4375 0.9375
vt 0.4375 0.75
vt 0 0.75
vt 0 0.6875
vt 0.4375 0.6875
vn 0 1 0
vn 0 0.06237828615518055 0.9980525784828888
vn 0.9980525784828888 0.06237828615518055 0
vn 0 0.06237828615518055 -0.9980525784828888
vn -0.9980525784828888 0.06237828615518055 0
usemtl m_fa511746-0d68-6ec4-5168-f17d226c6746
f 7/1/1 5/2/1 6/3/1 8/4/1
f 5/5/2 7/6/2 3/7/2 1/8/2
f 6/9/3 5/10/3 1/11/3 2/12/3
f 8/13/4 6/14/4 2/15/4 4/16/4
f 7/17/5 8/18/5 4/19/5 3/20/5