# Made in Blockbench 4.12.4
mtllib disc.mtl

o cylinder
v 0.51256015625 0 0.5364581875
v 0.51256015625 0.0625 0.5364581875
v 0.53431484375 0 0.52668925
v 0.53431484375 0.0625 0.52668925
v 0.546875 0 0.5097689375
v 0.546875 0.0625 0.5097689375
v 0.546875 0 0.4902310625
v 0.546875 0.0625 0.4902310625
v 0.53431484375 0 0.47331075
v 0.53431484375 0.0625 0.47331075
v 0.51256015625 0 0.4635418125
v 0.51256015625 0.0625 0.4635418125
v 0.48743984375 0 0.4635418125
v 0.48743984375 0.0625 0.4635418125
v 0.46568515625 0 0.47331075
v 0.46568515625 0.0625 0.47331075
v 0.453125 0 0.4902310625
v 0.453125 0.0625 0.4902310625
v 0.453125 0 0.5097689375
v 0.453125 0.0625 0.5097689375
v 0.46568515625 0 0.52668925
v 0.46568515625 0.0625 0.52668925
v 0.48743984375 0 0.5364581875
v 0.48743984375 0.0625 0.5364581875
v 0.5753609375 0 0.71875
v 0.5753609375 0.0625 0.71875
v 0.7058890625 0 0.6601359375
v 0.7058890625 0.0625 0.6601359375
v 0.78125 0 0.5586140625
v 0.78125 0.0625 0.5586140625
v 0.78125 0 0.4413859375
v 0.78125 0.0625 0.4413859375
v 0.7058890625 0 0.3398640625
v 0.7058890625 0.0625 0.3398640625
v 0.5753609375 0 0.28125
v 0.5753609375 0.0625 0.28125
v 0.4246390625 0 0.28125
v 0.4246390625 0.0625 0.28125
v 0.2941109375 0 0.3398640625
v 0.2941109375 0.0625 0.3398640625
v 0.21875 0 0.4413859375
v 0.21875 0.0625 0.4413859375
v 0.21875 0 0.5586140625
v 0.21875 0.0625 0.5586140625
v 0.2941109375 0 0.6601359375
v 0.2941109375 0.0625 0.6601359375
v 0.4246390625 0 0.71875
v 0.4246390625 0.0625 0.71875
vt 0.1188703125 0.625
vt 0.1188703125 0.59375
vt 0.1021234375 0.59375
vt 0.1021234375 0.625
vt 0.0228765625 1
vt 0.0228765625 0.96875
vt 0.0061296875 0.96875
vt 0.0061296875 1
vt 0.0396234375 1
vt 0.0396234375 0.96875
vt 0.0228765625 0.96875
vt 0.0228765625 1
vt 0.0563703125 1
vt 0.0563703125 0.96875
vt 0.0396234375 0.96875
vt 0.0396234375 1
vt 0.0228765625 0.65625
vt 0.0228765625 0.625
vt 0.0061296875 0.625
vt 0.0061296875 0.65625
vt 0.0396234375 0.65625
vt 0.0396234375 0.625
vt 0.0228765625 0.625
vt 0.0228765625 0.65625
vt 0.0563703125 0.65625
vt 0.0563703125 0.625
vt 0.0396234375 0.625
vt 0.0396234375 0.65625
vt 0.0228765625 0.625
vt 0.0228765625 0.59375
vt 0.0061296875 0.59375
vt 0.0061296875 0.625
vt 0.0396234375 0.625
vt 0.0396234375 0.59375
vt 0.0228765625 0.59375
vt 0.0228765625 0.625
vt 0.0563703125 0.625
vt 0.0563703125 0.59375
vt 0.0396234375 0.59375
vt 0.0396234375 0.625
vt 0.0853765625 0.625
vt 0.0853765625 0.59375
vt 0.0686296875 0.59375
vt 0.0686296875 0.625
vt 0.1021234375 0.625
vt 0.1021234375 0.59375
vt 0.0853765625 0.59375
vt 0.0853765625 0.625
vt 0.581490625 0.875
vt 0.681971875 0.875
vt 0.681971875 0.90625
vt 0.581490625 0.90625
vt 0.318028125 0.96875
vt 0.418509375 0.96875
vt 0.418509375 1
vt 0.318028125 1
vt 0.418509375 0.96875
vt 0.518990625 0.96875
vt 0.518990625 1
vt 0.418509375 1
vt 0.518990625 0.96875
vt 0.619471875 0.96875
vt 0.619471875 1
vt 0.518990625 1
vt 0.349278125 0.9375
vt 0.449759375 0.9375
vt 0.449759375 0.96875
vt 0.349278125 0.96875
vt 0.449759375 0.9375
vt 0.550240625 0.9375
vt 0.550240625 0.96875
vt 0.449759375 0.96875
vt 0.550240625 0.9375
vt 0.650721875 0.9375
vt 0.650721875 0.96875
vt 0.550240625 0.96875
vt 0.380528125 0.90625
vt 0.481009375 0.90625
vt 0.481009375 0.9375
vt 0.380528125 0.9375
vt 0.481009375 0.90625
vt 0.581490625 0.90625
vt 0.581490625 0.9375
vt 0.481009375 0.9375
vt 0.581490625 0.90625
vt 0.681971875 0.90625
vt 0.681971875 0.9375
vt 0.581490625 0.9375
vt 0.380528125 0.875
vt 0.481009375 0.875
vt 0.481009375 0.90625
vt 0.380528125 0.90625
vt 0.481009375 0.875
vt 0.581490625 0.875
vt 0.581490625 0.90625
vt 0.481009375 0.90625
vt 0.5 0.508375
vt 0.65625 0.550240625
vt 0.65625 0.44975937499999996
vt 0.5 0.49162812499999997
vt 0.491628125 0.477125
vt 0.5 0.49162812499999997
vt 0.65625 0.44975937499999996
vt 0.606009375 0.36274062500000004
vt 0.491628125 0.477125
vt 0.606009375 0.36274062500000004
vt 0.518990625 0.3125
vt 0.477125 0.46875
vt 0.460378125 0.46875
vt 0.418509375 0.3125
vt 0.331490625 0.36274062500000004
vt 0.445875 0.47712187500000003
vt 0.445875 0.47712187500000003
vt 0.331490625 0.36274062500000004
vt 0.28125 0.44975937499999996
vt 0.4375 0.491625
vt 0.4375 0.491625
vt 0.28125 0.44975937499999996
vt 0.28125 0.550240625
vt 0.4375 0.5083718749999999
vt 0.4375 0.5083718749999999
vt 0.28125 0.550240625
vt 0.331490625 0.637259375
vt 0.445871875 0.522875
vt 0.445871875 0.522875
vt 0.331490625 0.637259375
vt 0.418509375 0.6875
vt 0.460375 0.53125
vt 0.477121875 0.53125
vt 0.518990625 0.6875
vt 0.606009375 0.637259375
vt 0.491625 0.5228781250000001
vt 0.491625 0.5228781250000001
vt 0.606009375 0.637259375
vt 0.65625 0.550240625
vt 0.5 0.508375
vt 0.606009375 0.36274062500000004
vt 0.491625 0.47712187500000003
vt 0.5 0.491625
vt 0.65625 0.44975937499999996
vt 0.518990625 0.3125
vt 0.477121875 0.46875
vt 0.491625 0.47712187500000003
vt 0.606009375 0.36274062500000004
vt 0.331490625 0.36274062500000004
vt 0.445871875 0.477125
vt 0.460375 0.46875
vt 0.418509375 0.3125
vt 0.28125 0.44975937499999996
vt 0.4375 0.49162812499999997
vt 0.445871875 0.477125
vt 0.331490625 0.36274062500000004
vt 0.331490625 0.637259375
vt 0.445875 0.5228781250000001
vt 0.4375 0.508375
vt 0.28125 0.550240625
vt 0.418509375 0.6875
vt 0.460378125 0.53125
vt 0.445875 0.5228781250000001
vt 0.331490625 0.637259375
vt 0.606009375 0.637259375
vt 0.491628125 0.522875
vt 0.477125 0.53125
vt 0.518990625 0.6875
vt 0.65625 0.550240625
vt 0.5 0.5083718749999999
vt 0.491628125 0.522875
vt 0.606009375 0.637259375
vt 0.28125 0.550240625
vt 0.4375 0.508375
vt 0.4375 0.49162812499999997
vt 0.28125 0.44975937499999996
vt 0.65625 0.44975937499999996
vt 0.5 0.491625
vt 0.5 0.5083718749999999
vt 0.65625 0.550240625
vt 0.418509375 0.3125
vt 0.460375 0.46875
vt 0.477121875 0.46875
vt 0.518990625 0.3125
vt 0.518990625 0.6875
vt 0.477125 0.53125
vt 0.460378125 0.53125
vt 0.418509375 0.6875
vt 0.477125 0.46875
vt 0.518990625 0.3125
vt 0.418509375 0.3125
vt 0.460378125 0.46875
vt 0.460375 0.53125
vt 0.418509375 0.6875
vt 0.518990625 0.6875
vt 0.477121875 0.53125
vn -0.4096436844842291 0 -0.9122456093411389
vn -0.802953216052687 0 -0.5960420562599984
vn -1 0 0
vn -0.802953216052687 0 0.5960420562599984
vn -0.4096436844842291 0 0.9122456093411389
vn 0 0 1
vn 0.4096436844842291 0 0.9122456093411389
vn 0.802953216052687 0 0.5960420562599984
vn 1 0 0
vn 0.802953216052687 0 -0.5960420562599984
vn 0.4096436844842291 0 -0.9122456093411389
vn 0 0 -1
vn 0.40964622901957 0 0.9122444667138552
vn 0.8029532160526869 0 0.5960420562599984
vn 1 0 0
vn 0.8029532160526869 0 -0.5960420562599984
vn 0.40964622901957 0 -0.9122444667138552
vn 0 0 -1
vn -0.40964622901957 0 -0.9122444667138552
vn -0.8029532160526869 0 -0.5960420562599984
vn -1 0 0
vn -0.8029532160526869 0 0.5960420562599984
vn -0.40964622901957 0 0.9122444667138552
vn 0 0 1
vn 0 1 0
vn 0 1 0
vn 0 1 0
vn 0 1 0
vn 0 1 0
vn 0 1 0
vn 0 1 0
vn 0 1 0
vn 0 1 0
vn 0 1 0
vn 0 -1 0
vn 0 -1 0
vn 0 -1 0
vn 0 -1 0
vn 0 -1 0
vn 0 -1 0
vn 0 -1 0
vn 0 -1 0
vn 0 -1 0
vn 0 -1 0
vn 0 -1 0
vn 0 -1 0
vn 0 1 0
vn 0 1 0
usemtl m_180ea053-11c6-f2cd-1c5a-a818638b6f2d
f 4/1/1 3/2/1 1/3/1 2/4/1
f 6/5/2 5/6/2 3/7/2 4/8/2
f 8/9/3 7/10/3 5/11/3 6/12/3
f 10/13/4 9/14/4 7/15/4 8/16/4
f 12/17/5 11/18/5 9/19/5 10/20/5
f 14/21/6 13/22/6 11/23/6 12/24/6
f 16/25/7 15/26/7 13/27/7 14/28/7
f 18/29/8 17/30/8 15/31/8 16/32/8
f 20/33/9 19/34/9 17/35/9 18/36/9
f 22/37/10 21/38/10 19/39/10 20/40/10
f 24/41/11 23/42/11 21/43/11 22/44/11
f 2/45/12 1/46/12 23/47/12 24/48/12
f 25/49/13 27/50/13 28/51/13 26/52/13
f 27/53/14 29/54/14 30/55/14 28/56/14
f 29/57/15 31/58/15 32/59/15 30/60/15
f 31/61/16 33/62/16 34/63/16 32/64/16
f 33/65/17 35/66/17 36/67/17 34/68/17
f 35/69/18 37/70/18 38/71/18 36/72/18
f 37/73/19 39/74/19 40/75/19 38/76/19
f 39/77/20 41/78/20 42/79/20 40/80/20
f 41/81/21 43/82/21 44/83/21 42/84/21
f 43/85/22 45/86/22 46/87/22 44/88/22
f 45/89/23 47/90/23 48/91/23 46/92/23
f 47/93/24 25/94/24 26/95/24 48/96/24
f 6/97/25 30/98/25 32/99/25 8/100/25
f 10/101/26 8/102/26 32/103/26 34/104/26
f 10/105/27 34/106/27 36/107/27 12/108/27
f 14/109/28 38/110/28 40/111/28 16/112/28
f 16/113/29 40/114/29 42/115/29 18/116/29
f 18/117/30 42/118/30 44/119/30 20/120/30
f 20/121/31 44/122/31 46/123/31 22/124/31
f 22/125/32 46/126/32 48/127/32 24/128/32
f 2/129/33 26/130/33 28/131/33 4/132/33
f 4/133/34 28/134/34 30/135/34 6/136/34
f 27/137/35 3/138/35 5/139/35 29/140/35
f 25/141/36 1/142/36 3/143/36 27/144/36
f 45/145/37 21/146/37 23/147/37 47/148/37
f 43/149/38 19/150/38 21/151/38 45/152/38
f 39/153/39 15/154/39 17/155/39 41/156/39
f 37/157/40 13/158/40 15/159/40 39/160/40
f 33/161/41 9/162/41 11/163/41 35/164/41
f 31/165/42 7/166/42 9/167/42 33/168/42
f 41/169/43 17/170/43 19/171/43 43/172/43
f 29/173/44 5/174/44 7/175/44 31/176/44
f 47/177/45 23/178/45 1/179/45 25/180/45
f 35/181/46 11/182/46 13/183/46 37/184/46
f 12/185/47 36/186/47 38/187/47 14/188/47
f 24/189/48 48/190/48 26/191/48 2/192/48