mtllib white_latex_pillar.mtl

o cuboid
v 0.90625 1 0.90625
v 0.90625 1 0.09375
v 0.9375 0 0.9375
v 0.9375 0 0.0625
v 0.09375 1 0.90625
v 0.09375 1 0.09375
v 0.0625 0 0.9375
v 0.0625 0 0.0625
v 0.84375 2 0.84375
v 0.84375 2 0.15625
v 0.15625 2 0.84375
v 0.15625 2 0.15625
vt 0.5 1
vt 0 1
vt 0 0.5
vt 0.5 0.5
vt 0.5 0.5
vt 0.5 1
vt 0 1
vt 0 0.5
vt 0 0
vt 0.5 0
vt 0.5 1
vt 0 1
vt 0.5 0
vt 0.5 1
vt 0 1
vt 0 0
vt 0.5 0.5
vt 0.5 1
vt 0 1
vt 0 0.5
vt 0.5 1
vt 0 1
vt 0 0.5
vt 0.5 0.5
vt 0.4375 0.5
vt 0 0.5
vt 0 0.4375
vt 0.4375 0.4375
vt 0.46875 0.75
vt 0.03125 0.75
vt 0.03125 0.6875
vt 0.46875 0.6875
vt 0.4375 1
vt 0 1
vt 0 0.9375
vt 0.4375 0.9375
vt 0.4375 0.75
vt 0 0.75
vt 0 0.6875
vt 0.4375 0.6875
vn 0.9995120760870788 0.031234752377721213 0
vn -0.9995120760870788 0.031234752377721213 0
vn 0 1 0
vn 0 -1 0
vn 0 0.031234752377721213 0.9995120760870788
vn 0 0.031234752377721213 -0.9995120760870788
vn 0 0.06237828615518055 0.9980525784828888
vn 0.9980525784828888 0.06237828615518055 0
vn 0 0.06237828615518055 -0.9980525784828888
vn -0.9980525784828888 0.06237828615518055 0
usemtl m_e39effbd-0f43-f15a-f614-48dcefef8ef4
f 2/1/1 1/2/1 3/3/1 4/4/1
f 7/5/2 5/6/2 6/7/2 8/8/2
f 11/9/3 9/10/3 10/11/3 12/12/3
f 4/13/4 3/14/4 7/15/4 8/16/4
f 3/17/5 1/18/5 5/19/5 7/20/5
f 6/21/6 2/22/6 4/23/6 8/24/6
f 9/25/7 11/26/7 5/27/7 1/28/7
f 10/29/8 9/30/8 1/31/8 2/32/8
f 12/33/9 10/34/9 2/35/9 6/36/9
f 11/37/10 12/38/10 6/39/10 5/40/10